<mxfile host="app.diagrams.net" agent="Mozilla/5.0 (Windows NT 10.0; Win64; x64; rv:140.0) Gecko/20100101 Firefox/140.0" version="28.0.4">
  <diagram name="Page-1" id="32M6JvhvVxVHetDyQvSY">
    <mxGraphModel dx="839" dy="545" grid="1" gridSize="10" guides="1" tooltips="1" connect="1" arrows="1" fold="1" page="1" pageScale="1" pageWidth="1200" pageHeight="1600" math="0" shadow="0">
      <root>
        <mxCell id="0" />
        <mxCell id="1" parent="0" />
        <mxCell id="Oun35AbBtmPD2pwHn-yV-1" value="亚特拉大房地产项目" style="swimlane;childLayout=stackLayout;resizeParent=1;resizeParentMax=0;startSize=20;html=1;" vertex="1" parent="1">
          <mxGeometry x="170" y="250" width="770" height="260" as="geometry" />
        </mxCell>
        <mxCell id="Oun35AbBtmPD2pwHn-yV-6" value="找房源" style="swimlane;startSize=20;html=1;" vertex="1" parent="Oun35AbBtmPD2pwHn-yV-1">
          <mxGeometry y="20" width="120" height="240" as="geometry" />
        </mxCell>
        <mxCell id="Oun35AbBtmPD2pwHn-yV-7" value="&lt;div&gt;Jeff&lt;/div&gt;&lt;div&gt;Chadd&lt;/div&gt;" style="text;html=1;align=center;verticalAlign=middle;whiteSpace=wrap;rounded=0;" vertex="1" parent="Oun35AbBtmPD2pwHn-yV-6">
          <mxGeometry x="20" y="50" width="60" height="30" as="geometry" />
        </mxCell>
        <mxCell id="Oun35AbBtmPD2pwHn-yV-2" value="建房子" style="swimlane;startSize=20;html=1;" vertex="1" parent="Oun35AbBtmPD2pwHn-yV-1">
          <mxGeometry x="120" y="20" width="120" height="240" as="geometry" />
        </mxCell>
        <mxCell id="Oun35AbBtmPD2pwHn-yV-3" value="" style="swimlane;startSize=20;html=1;" vertex="1" parent="Oun35AbBtmPD2pwHn-yV-1">
          <mxGeometry x="240" y="20" width="120" height="240" as="geometry" />
        </mxCell>
        <mxCell id="Oun35AbBtmPD2pwHn-yV-4" value="租/售 策略" style="swimlane;startSize=20;html=1;" vertex="1" parent="Oun35AbBtmPD2pwHn-yV-1">
          <mxGeometry x="360" y="20" width="120" height="240" as="geometry" />
        </mxCell>
        <mxCell id="Oun35AbBtmPD2pwHn-yV-5" value="社交目标" style="swimlane;startSize=20;html=1;" vertex="1" parent="Oun35AbBtmPD2pwHn-yV-1">
          <mxGeometry x="480" y="20" width="290" height="240" as="geometry" />
        </mxCell>
        <mxCell id="Oun35AbBtmPD2pwHn-yV-8" value="&lt;div&gt;1. get general contract license&amp;nbsp; &amp;nbsp; &amp;nbsp; &amp;nbsp; &amp;nbsp; &amp;nbsp; &amp;nbsp; &amp;nbsp; &amp;nbsp; &amp;nbsp; &amp;nbsp; &amp;nbsp; &amp;nbsp; &amp;nbsp; &amp;nbsp; &amp;nbsp; &amp;nbsp; &amp;nbsp; &amp;nbsp; &amp;nbsp; &amp;nbsp; 2.&amp;nbsp; Contractor 材料筛选&lt;/div&gt;" style="text;html=1;align=center;verticalAlign=middle;whiteSpace=wrap;rounded=0;" vertex="1" parent="Oun35AbBtmPD2pwHn-yV-5">
          <mxGeometry x="10" y="50" width="240" height="30" as="geometry" />
        </mxCell>
        <mxCell id="Oun35AbBtmPD2pwHn-yV-9" value="&lt;div&gt;&lt;b&gt;Yuxiao&#39;s Goal :&lt;/b&gt;&lt;/div&gt;&lt;div&gt;&lt;b&gt;1. Attain General Contractor License -- how many years&amp;nbsp;&lt;/b&gt;&lt;/div&gt;&lt;div&gt;&lt;b&gt;2. Participant in at least 2 Real Estate Project&amp;nbsp;&amp;nbsp;&lt;/b&gt;&lt;/div&gt;&lt;div&gt;&lt;b&gt;&lt;br&gt;&lt;/b&gt;&lt;/div&gt;" style="text;html=1;align=left;verticalAlign=middle;whiteSpace=wrap;rounded=0;" vertex="1" parent="1">
          <mxGeometry x="190" y="70" width="370" height="30" as="geometry" />
        </mxCell>
      </root>
    </mxGraphModel>
  </diagram>
</mxfile>
